<svg width="26" height="26" viewBox="0 0 26 26" fill="none" xmlns="http://www.w3.org/2000/svg">
<path d="M23.1085 13.6721L18.107 10.1003L23.1085 6.52755L25.4196 7.29792L25.9999 5.55608L23.8733 4.84722V2.75463H22.0369V5.03638L17.4459 8.31622V3.09161L19.7919 1.5279L18.7727 0L16.5277 1.49668L14.2826 0L13.2634 1.5279L15.6094 3.09161V8.31622L12.8548 6.3485V8.60545L14.9483 10.1003L12.8548 11.5951V13.8521L15.6094 11.8844V18.0915L18.7727 20.2006L19.7919 18.6727L17.4459 17.109V11.8844L22.0369 15.1642V17.446H23.8733V15.3534L25.9999 14.6436L25.4196 12.9018L23.1085 13.6721ZM9.18198 19.2824C9.18198 20.013 8.89176 20.7136 8.37517 21.2302C7.85858 21.7468 7.15793 22.037 6.42736 22.037C5.69678 22.037 4.99613 21.7468 4.47954 21.2302C3.96295 20.7136 3.67273 20.013 3.67273 19.2824H9.18198Z" fill="white"/>
<path d="M6.42826 25.7098C5.16295 25.7113 3.92541 25.3388 2.87106 24.6393C1.81671 23.9397 0.99255 22.9443 0.502061 21.7779C0.0115728 20.6115 -0.123373 19.3262 0.114169 18.0834C0.351711 16.8406 0.951151 15.6956 1.83722 14.7923V4.59104C1.83722 3.37342 2.32091 2.20567 3.1819 1.34469C4.04289 0.483698 5.21064 0 6.42826 0C7.64588 0 8.81363 0.483698 9.67462 1.34469C10.5356 2.20567 11.0193 3.37342 11.0193 4.59104V14.7923C11.9054 15.6956 12.5048 16.8406 12.7424 18.0834C12.9799 19.3262 12.8449 20.6115 12.3545 21.7779C11.864 22.9443 11.0398 23.9397 9.98546 24.6393C8.93111 25.3388 7.69358 25.7113 6.42826 25.7098ZM6.42826 1.83642C5.69791 1.83715 4.99769 2.1276 4.48125 2.64403C3.96482 3.16047 3.67436 3.8607 3.67363 4.59104V15.5939L3.36879 15.8685C2.67543 16.4882 2.18661 17.3039 1.96703 18.2075C1.74746 19.1112 1.80747 20.0602 2.13914 20.929C2.47081 21.7977 3.05849 22.5453 3.8244 23.0728C4.5903 23.6002 5.49832 23.8826 6.42826 23.8826C7.3582 23.8826 8.26622 23.6002 9.03213 23.0728C9.79803 22.5453 10.3857 21.7977 10.7174 20.929C11.049 20.0602 11.1091 19.1112 10.8895 18.2075C10.6699 17.3039 10.1811 16.4882 9.48773 15.8685L9.18289 15.5939V4.59104C9.18216 3.8607 8.8917 3.16047 8.37527 2.64403C7.85884 2.1276 7.15861 1.83715 6.42826 1.83642Z" fill="white"/>
</svg>
