<svg width="27" height="27" viewBox="0 0 27 27" fill="none" xmlns="http://www.w3.org/2000/svg">
<path d="M21.5112 0C18.7757 0 16.5471 2.22868 16.5471 4.96412C16.5471 7.69955 18.7757 9.92824 21.5112 9.92824C24.2466 9.92824 26.4753 7.69955 26.4753 4.96412C26.4753 2.22868 24.2466 0 21.5112 0ZM21.5112 6.61882C20.5959 6.61882 19.8565 5.87938 19.8565 4.96412C19.8565 4.04886 20.5959 3.30941 21.5112 3.30941C22.4264 3.30941 23.1659 4.04886 23.1659 4.96412C23.1659 5.87938 22.4264 6.61882 21.5112 6.61882ZM13.2376 5.79147C13.2376 2.59065 10.647 0 7.44618 0C4.24535 0 1.65471 2.59065 1.65471 5.79147V14.4011C0.636028 15.6783 0 17.271 0 19.0291C0 23.14 3.33527 26.4753 7.44618 26.4753C11.5571 26.4753 14.8924 23.14 14.8924 19.0291C14.8924 17.271 14.2563 15.6732 13.2376 14.4011V5.79147ZM7.44618 23.1659C5.16578 23.1659 3.30941 21.3095 3.30941 19.0291C3.30941 17.7105 3.94027 16.5005 4.96412 15.73V5.79147C4.96412 4.42117 6.07587 3.30941 7.44618 3.30941C8.81648 3.30941 9.92824 4.42117 9.92824 5.79147V15.73C10.9521 16.4953 11.5829 17.7105 11.5829 19.0291C11.5829 21.3095 9.72657 23.1659 7.44618 23.1659ZM8.27353 16.697V5.79147C8.27353 5.33643 7.90122 4.96412 7.44618 4.96412C6.99113 4.96412 6.61882 5.33643 6.61882 5.79147V16.697C5.65703 17.0383 4.96412 17.9484 4.96412 19.0291C4.96412 20.3994 6.07587 21.5112 7.44618 21.5112C8.81648 21.5112 9.92824 20.3994 9.92824 19.0291C9.92824 17.9484 9.23533 17.0383 8.27353 16.697Z" fill="white"/>
</svg>
